<svg xmlns="http://www.w3.org/2000/svg" viewBox="0 0 420 420" width="100%" height="100%">
  <defs>
    <style>
      @keyframes spin-cw { 0% { transform: rotate(0deg); } 100% { transform: rotate(360deg); } }
      @keyframes spin-ccw { 0% { transform: rotate(0deg); } 100% { transform: rotate(-360deg); } }
      @keyframes pulse-core { 0%,100% { opacity: .7; transform: scale(1); } 50% { opacity: 1; transform: scale(1.08); } }
      .grid { stroke: rgba(0,112,192,.06); stroke-width: .8; }
      .ring { fill: none; stroke: #c8a45a; stroke-width: 1.1; }
      .orbit { fill: #c8a45a; }
      .core { fill: #0070c0; animation: pulse-core 3s ease-in-out infinite; }
      .tech { stroke: rgba(0,112,192,.2); stroke-width: .8; }
      .cw { animation: spin-cw 36s linear infinite; transform-origin: 150px 150px; }
      .ccw { animation: spin-ccw 42s linear infinite; transform-origin: 150px 150px; }
      .tri-up   { fill: none; stroke: #0070c0; stroke-width: 1.7; animation: spin-cw 25s linear infinite; transform-origin: 150px 150px; }
      .tri-down { fill: none; stroke: #c8a45a; stroke-width: 1.7; animation: spin-ccw 34s linear infinite; transform-origin: 150px 150px; }
    </style>
  </defs>
  
  <rect width="100%" height="100%" fill="#f5f0e1"/>
  <g transform="translate(150, 150) scale(1.4) translate(-150, -150)">
    <g class="grid">
      <line x1="150" y1="0" x2="150" y2="300"/><line x1="0" y1="150" x2="300" y2="150"/>
      <line x1="40" y1="40" x2="260" y2="260"/><line x1="260" y1="40" x2="40" y2="260"/>
    </g>
    
    <g class="cw">
      <circle cx="150" cy="150" r="110" class="ring"/>
      <rect x="40" y="40" width="220" height="220" rx="4" class="ring"/>
    </g>
    
    <polygon class="tri-up" points="150,30 250,230 50,230"/>
    <polygon class="tri-down" points="150,270 50,70 250,70"/>
    
    <circle cx="150" cy="150" r="85" fill="none" stroke="rgba(0,112,192,.15)" stroke-width=".8" stroke-dasharray="6 6"/>
    <circle class="orbit cw" style="animation-duration:21s" cx="150" cy="65" r="4"/>
    <circle class="orbit ccw" style="animation-duration:28s" cx="215" cy="195" r="3.5"/>
    <circle class="orbit cw" style="animation-duration:34s" cx="85" cy="205" r="4"/>
    
    <circle cx="150" cy="150" r="11" class="core"/>
    <circle cx="150" cy="150" r="20" fill="none" stroke="#c8a45a" stroke-width="2"/>
    
    <g transform="translate(150,150)">
      <circle r="125" fill="none" stroke="rgba(0,112,192,.1)" stroke-width=".8"/>
      <path d="M0,-125 L0,125 M-125,0 L125,0" class="tech"/>
      <circle r="22" fill="none" stroke="rgba(200,164,90,.25)" stroke-width=".8" stroke-dasharray="3 3"/>
    </g>
    
    <text x="150" y="285" text-anchor="middle" font-family="monospace" font-size="11" fill="#5c4a30" letter-spacing="1">КЕНДРЫ • ТРИКОНЫ • ПЛАНЕТЫ</text>
  </g>
</svg>
