<svg xmlns="http://www.w3.org/2000/svg" width="60" height="60" viewBox="0 0 60 60" style="background:transparent">
  <defs><filter id="glow"><feGaussianBlur stdDeviation="2.5" result="blur"/><feMerge><feMergeNode in="blur"/><feMergeNode in="SourceGraphic"/></feMerge></filter></defs>
  <circle cx="30" cy="30" r="21" fill="none" stroke="#16a34a" stroke-width="0.7" opacity="0.6"/>
  <ellipse cx="46.0" cy="30.0" rx="2.8" ry="1.5" transform="rotate(0 46.0 30.0)" fill="#16a34a" opacity="0.82"/>
  <ellipse cx="41.3" cy="41.3" rx="2.8" ry="1.5" transform="rotate(45 41.3 41.3)" fill="#16a34a" opacity="0.82"/>
  <ellipse cx="30.0" cy="46.0" rx="2.8" ry="1.5" transform="rotate(90 30.0 46.0)" fill="#16a34a" opacity="0.82"/>
  <ellipse cx="18.7" cy="41.3" rx="2.8" ry="1.5" transform="rotate(135 18.7 41.3)" fill="#16a34a" opacity="0.82"/>
  <ellipse cx="14.0" cy="30.0" rx="2.8" ry="1.5" transform="rotate(180 14.0 30.0)" fill="#16a34a" opacity="0.82"/>
  <ellipse cx="18.7" cy="18.7" rx="2.8" ry="1.5" transform="rotate(225 18.7 18.7)" fill="#16a34a" opacity="0.82"/>
  <ellipse cx="30.0" cy="14.0" rx="2.8" ry="1.5" transform="rotate(270 30.0 14.0)" fill="#16a34a" opacity="0.82"/>
  <ellipse cx="41.3" cy="18.7" rx="2.8" ry="1.5" transform="rotate(315 41.3 18.7)" fill="#16a34a" opacity="0.82"/>
  <circle cx="30" cy="30" r="12" fill="#16a34abb" stroke="#16a34a" stroke-width="2" filter="url(#glow)"/>
  <circle cx="30" cy="30" r="2.2" fill="white" opacity="0.85"/>
</svg>