<svg xmlns="http://www.w3.org/2000/svg" viewBox="0 0 400 800" width="100%" height="100%">
  <g stroke="#0070c0" stroke-width="1.2" fill="none" opacity="0.7" stroke-dasharray="6,3">
    <path d="M165,220 Q140,280 120,350 Q110,400 105,450"/>
    <path d="M235,220 Q260,280 280,350 Q290,400 295,450"/>
    <path d="M175,350 Q170,450 165,550 Q162,620 160,680"/>
    <path d="M225,350 Q230,450 235,550 Q238,620 240,680"/>
    <path d="M185,260 Q175,320 165,380"/>
    <path d="M215,260 Q225,320 235,380"/>
    <path d="M190,450 Q188,520 186,600 Q185,650 184,680"/>
    <path d="M210,450 Q212,520 214,600 Q215,650 216,680"/>
  </g>
  <g fill="#c8a45a">
    <circle cx="165" cy="220" r="2.5"/><circle cx="235" cy="220" r="2.5"/>
    <circle cx="200" cy="280" r="3"/><circle cx="200" cy="400" r="3"/>
    <circle cx="185" cy="500" r="2.5"/><circle cx="215" cy="500" r="2.5"/>
  </g>
</svg>
